<svg width="237" height="213" xmlns="http://www.w3.org/2000/svg">
 <g>
  <title>Layer 1</title>
  <path fill="none" stroke="#000" stroke-width="12" d="m-195.02251,314.31356l0.21429,-0.50001l0.57143,0l0.21429,0.50001l-0.21429,0.50001l-0.57143,0l-0.21429,-0.50001z" id="svg_14"/>
  <path id="svg_2" d="m-294.0175,414.04857l6.64286,-53l17.7143,0l6.64286,53l-6.64286,53l-17.7143,0l-6.64286,-53z" stroke-width="12" stroke="#529D94" fill="none"/>
  <path id="svg_3" d="m-358.62737,423.5434l82.7143,-44.5l220.57145,0l82.71428,44.5l-82.71428,44.5l-220.57145,0l-82.7143,-44.5z" opacity="NaN" stroke-width="12" stroke="#396849" fill="none"/>
  <path id="svg_4" d="m-279.09252,380.23141l12,-6l32,0l12,6l-12,6l-32,0l-12,-6z" stroke-width="12" stroke="#529D94" fill="none"/>
  <path id="svg_5" d="m-244.77251,390.23642l0.21429,-16.99999l0.57143,0l0.21429,16.99999l-0.21429,16.99999l-0.57143,0l-0.21429,-16.99999z" stroke-width="12" stroke="#529D94" fill="none"/>
  <path stroke="#529D94" id="svg_6" d="m-439.43751,409.59646l51.00002,-8.5l136.00003,0l51,8.5l-51,8.5l-136.00003,0l-51.00002,-8.5z" stroke-width="12" fill="none"/>
  <path id="svg_9" d="m17.5,106.5l43.28572,-86l115.42858,0l43.28571,86l-43.28571,86l-115.42858,0l-43.28572,-86z" stroke-width="12" stroke="#64ffda" fill="#0a192f"/>
  <text transform="matrix(1.26192 0 0 1.28127 -30.5949 -58.6295)" stroke="#e271e2" font-weight="bold" xml:space="preserve" text-anchor="start" font-family="'sans-serif'" font-size="60" id="svg_11" y="148.43175" x="100.01924" stroke-width="0" fill="#64ffda">A</text>
 </g>
</svg>